<svg width="32" height="38" viewBox="0 0 32 38" fill="none" xmlns="http://www.w3.org/2000/svg">
<path d="M27.6265 15.8849V7.40163L16.0048 1.74255L4.38251 7.40163V15.8736L27.6265 15.8849Z" fill="#F5B05B"/>
<path d="M16.0048 14.2201C18.3598 14.2201 20.269 12.3779 20.269 10.1055C20.269 7.83298 18.3598 5.99078 16.0048 5.99078C13.6497 5.99078 11.7406 7.83298 11.7406 10.1055C11.7406 12.3779 13.6497 14.2201 16.0048 14.2201Z" fill="#EE8651"/>
<path d="M27.5979 15.8848C27.3613 15.8208 25.2997 14.7924 25.2987 14.7919L24.9538 14.6956L24.5003 13.6263L24.4928 13.6155L22.2785 11.2823C22.2732 11.2766 22.2658 11.2726 22.2573 11.271L21.6069 11.1502L20.2663 9.88069C20.2599 9.87506 20.2525 9.87148 20.244 9.87046L20.0292 9.84742L19.5554 9.34217C19.5512 9.33808 19.5464 9.33449 19.5411 9.33245L19.0828 9.16045C19.0732 9.15686 19.0626 9.15686 19.053 9.16096L18.5438 9.3821L18.5342 9.38824L17.4907 10.2723L17.4838 10.28L17.208 10.6915L16.3401 11.2659L16.0281 11.1502C16.0175 11.1461 16.0058 11.1471 15.9963 11.1523L15.4557 11.4369L15.0164 11.1779C15.0027 11.1697 14.9857 11.1707 14.9729 11.1804L14.7639 11.3376L14.2891 11.0857L13.6324 9.45274C13.6302 9.44762 13.6271 9.44302 13.6228 9.43892L12.9613 8.84921C12.9507 8.84 12.9358 8.83693 12.9225 8.84153L12.566 8.96439C12.5597 8.96644 12.5544 8.97002 12.5501 8.97514L12.0716 9.50957L11.4424 9.80084C11.4345 9.80442 11.4281 9.81056 11.4244 9.81824L11.2499 10.1796L9.49974 11.6237C9.49496 11.6278 9.49125 11.6329 9.48912 11.6386L9.05889 12.7136L6.75703 14.4934C6.74854 14.498 6.74271 14.5052 6.73952 14.5144L6.51459 15.1891C6.51459 15.1891 5.9305 15.3795 4.4122 15.9785C4.4122 15.9785 27.5963 15.9278 27.5984 15.8863L27.5979 15.8848Z" fill="#2A3362"/>
<path d="M11.008 11.053L11.0515 12.1792L9.96923 12.9675L8.92732 14.4064L8.09018 14.7858L9.00902 18.4996L7.64403 16.1223L5.45517 16.0159L6.88169 15.5593L7.12413 14.8641L9.42599 13.0842L9.86684 11.9944L11.008 11.053Z" fill="white"/>
<path d="M12.1538 12.1423L12.4881 11.9058H12.8488L13.3183 11.7681L13.4615 12.2212L13.3591 12.5565L13.3798 12.8518L13.0939 13.8372L12.9889 12.5385L12.1538 12.1423Z" fill="white"/>
<path d="M13.7963 19.0422L17.738 14.6378L19.086 14.7166L17.8356 15.9626L13.7963 19.0422Z" fill="white"/>
<path d="M16.0907 12.6578L16.2132 13.722L16.356 12.7561L17.0424 11.8592L17.5406 11.4948L17.7655 10.9035L18.974 10.0758L19.3995 9.52701L19.1178 9.43896L18.5793 9.66062L17.5262 10.5508L17.2435 10.9696L16.3756 11.5439L16.0907 12.6578Z" fill="white"/>
<path d="M19.7448 14.6445L19.1507 15.3355L20.8011 14.4904L19.7448 14.6445Z" fill="white"/>
<path d="M22.2859 12.1551L22.6918 13.076L22.9581 13.0325L23.4308 13.4558L23.2658 13.0412L22.2859 12.1551Z" fill="white"/>
<path d="M19.9841 10.2012L19.8101 10.8436L19.2536 11.3279V11.9345L18.8934 12.1147V13.6539L19.2833 12.3102L19.5846 12.0051V11.5695L20.096 10.945L19.9841 10.2012Z" fill="white"/>
<path d="M20.4005 11.5803L19.9756 12.5385L20.1883 13.1323L20.4005 13.5393L20.4573 13.0453L20.322 12.6532L20.4005 11.5803Z" fill="white"/>
<path d="M14.2079 13.3417L13.9178 13.6437L13.0546 15.0315L14.0461 14.2652L14.9825 14.7064L14.9634 14.2319L14.5273 13.8659L14.2079 13.3417Z" fill="white"/>
<path d="M12.9634 9.39236L12.6095 9.47632L12.0865 9.99999L11.7262 10.1679L11.5899 10.5795L13.2265 10.1049L13.3639 9.68364L12.9634 9.39236Z" fill="white"/>
<path d="M15.3331 11.5685L15.1363 11.7123L15.514 12.2866L15.3331 11.5685Z" fill="white"/>
<path d="M18.9385 10.4423L18.1719 11.248L18.0233 12.4628L17.8626 13.4129L18.252 12.3747L18.4536 11.2926L18.9385 10.4423Z" fill="white"/>
<path d="M28.3119 21.0386V30.429L16.0048 37.0212L3.6976 30.429V21.0386H2.81113V30.429V30.9327L3.26736 31.1774L15.5745 37.7691L16.0048 38L16.435 37.7691L28.7422 31.1774L29.1984 30.9327V30.429V21.0386H28.3119Z" fill="#2A3362"/>
<path d="M3.6976 15.9201V6.95111L16.0048 0.95828L28.3119 6.95111V15.9201H29.1984V6.95111V6.42437L28.7114 6.18736L16.4042 0.194523L16.0048 0L15.6053 0.194523L3.29813 6.18736L2.81113 6.42437V6.95111V15.9201H3.6976Z" fill="#2A3362"/>
<path d="M3.07109 16.7299V20.0921H2.12042V18.8H0.950663V20.0921H0V16.7299H0.950663V18.022H2.12042V16.7299H3.07109Z" fill="#2A3362"/>
<path d="M6.46952 19.314V20.0921H3.86633V16.7299H6.38517V17.508H4.81753V18.022H6.23079V18.8H4.81753V19.314H6.46952Z" fill="#2A3362"/>
<path d="M9.38093 16.7299V18.7181C9.38093 19.6785 8.80852 20.1638 8.06687 20.1638C7.49446 20.1638 7.19578 19.9959 6.81754 19.6401L7.35494 19.1118C7.55388 19.3038 7.70348 19.357 7.92735 19.357C8.25573 19.357 8.42974 19.1502 8.42974 18.7473V16.7304H9.3804L9.38093 16.7299Z" fill="#2A3362"/>
<path d="M14.618 18.022V19.7461C14.2695 20.0056 13.6774 20.1638 13.2244 20.1638C12.0944 20.1638 11.2483 19.4241 11.2483 18.411C11.2483 17.398 12.1491 16.6532 13.279 16.6532C13.7268 16.6532 14.1103 16.8119 14.4589 17.0755L13.991 17.7143C13.7819 17.5705 13.5379 17.4696 13.279 17.4696C12.6817 17.4696 12.174 17.8874 12.174 18.411C12.174 18.9347 12.627 19.3524 13.2244 19.3524C13.3936 19.3524 13.5475 19.3284 13.7268 19.2854V18.8006H12.9453V18.0225H14.6175L14.618 18.022Z" fill="#2A3362"/>
<path d="M16.7125 19.0115H16.3639V20.0921H15.4133V16.7305H16.8419C17.6828 16.7305 18.2053 17.2301 18.2053 17.8684C18.2053 18.2718 18.0016 18.6179 17.643 18.8195L18.4043 20.0921H17.3592L16.7125 19.0115ZM16.3639 18.2334H16.8069C17.2149 18.2334 17.3443 18.0844 17.3443 17.8684C17.3443 17.6524 17.2149 17.508 16.8069 17.508H16.3639V18.2334Z" fill="#2A3362"/>
<path d="M21.9724 16.7299V18.7181C21.9724 19.6836 21.2759 20.1638 20.4345 20.1638C19.5931 20.1638 18.9019 19.6836 18.9019 18.7181V16.7299H19.8525V18.7468C19.8525 19.1502 20.1114 19.3565 20.435 19.3565C20.7586 19.3565 21.0175 19.1497 21.0175 18.7468V16.7299H21.9729H21.9724Z" fill="#2A3362"/>
<path d="M25.1273 19.314V20.0921H22.5692V19.4148L23.973 17.508H22.6541V16.7299H25.0875V17.4123L23.6939 19.314H25.1273Z" fill="#2A3362"/>
<path d="M27.9889 16.7299V18.7181C27.9889 19.6785 27.4164 20.1638 26.6748 20.1638C26.1024 20.1638 25.8037 19.9959 25.4255 19.6401L25.9629 19.1118C26.1618 19.3038 26.3114 19.357 26.5353 19.357C26.8637 19.357 27.0382 19.1502 27.0382 18.7473V16.7304H27.9889V16.7299Z" fill="#2A3362"/>
<path d="M30.7257 19.4962H29.6207L29.4069 20.0916H28.347L29.661 16.7299H30.6812L32 20.0916H30.9401L30.7257 19.4962ZM30.4419 18.7181L30.1729 17.9784L29.904 18.7181H30.4414H30.4419Z" fill="#2A3362"/>
<path d="M24.0329 31.636C23.4907 31.8311 21.6053 32.4909 21.0467 32.6168C21.3024 32.624 21.756 32.667 22.3347 32.7095L24.9703 31.2977C24.6615 31.4093 24.3501 31.5219 24.0329 31.636Z" fill="#00A2C9"/>
<path d="M26.8981 27.0458C24.6175 27.8766 23.0653 26.7417 22.7729 26.2657C22.4504 26.7776 20.9141 27.9324 19.9634 28.2559C18.9936 28.5861 17.6011 28.7433 15.6748 28.3808C17.3523 29.2086 20.1321 29.4666 21.3109 29.506C22.1857 29.5357 23.4244 29.4333 24.2881 29.2362C25.4318 28.9752 26.583 28.5938 27.626 28.024V26.7417C27.3851 26.8528 27.1422 26.9557 26.8976 27.0443L26.8981 27.0458Z" fill="#00A2C9"/>
<path d="M18.9772 21.7584C18.7364 22.2094 16.4318 24.7669 15.4992 25.0924C14.53 25.4308 13.5719 25.3059 12.6976 24.6978C12.6976 24.6978 13.826 25.8183 15.2032 26.1981C16.3846 26.5237 17.7093 26.3625 18.8552 25.9192C20 25.4764 20.8743 24.6409 21.7868 23.6878C21.5358 23.6903 21.3082 23.6125 21.0679 23.5352C20.1035 23.2225 19.8329 22.7244 18.9777 21.7584H18.9772Z" fill="#00A2C9"/>
<path d="M17.1072 33.0008C18.7703 32.7924 20.6998 32.5739 22.2876 31.9642C23.8647 31.3581 24.4356 31.1436 26.0324 30.5836C24.7406 30.7674 23.1502 30.7346 21.3141 30.3911C20.9072 30.3153 19.6446 30.0614 18.4854 29.6478C16.7581 30.2831 13.1098 32.2483 11.1427 32.6158C11.1427 32.6158 15.487 33.2035 17.1077 33.0003L17.1072 33.0008Z" fill="#00A2C9"/>
<path d="M5.39891 24.366C6.52994 24.6117 7.32994 24.8144 8.29068 24.7689C9.66628 24.7033 10.6498 24.3056 11.9045 23.5536C12.1013 23.9304 12.3591 24.2585 12.6726 24.4858C13.8398 25.3335 15.9108 25.0376 16.6965 23.6345C16.3809 23.9073 16.0291 24.0988 15.6562 24.2196C15.0721 24.4085 14.1639 24.4791 13.6276 24.0409C12.7305 23.3079 12.7803 22.1172 13.5856 22.4075C13.3294 21.7215 12.7045 21.7927 12.2079 22.0287C11.8291 22.2083 10.6265 23.3545 9.53206 23.8239C8.58246 24.2314 6.73525 24.6639 5.39838 24.366H5.39891Z" fill="#00A2C9"/>
<path d="M25.4419 29.3668C24.1528 29.6965 21.7623 29.9299 19.2658 29.6504C21.1284 30.0133 23.782 30.859 26.9204 30.1725C27.0085 30.1531 27.0939 30.1341 27.1793 30.1147L27.626 29.8751V28.5288C26.9215 28.9035 26.2403 29.1631 25.4414 29.3673L25.4419 29.3668Z" fill="#00A2C9"/>
<path d="M10.9703 31.2721C9.52891 31.2608 8.10398 31.0325 6.66896 30.9137C6.54111 30.903 6.41326 30.8969 6.28647 30.8943L9.58673 32.6624C9.65199 32.6522 9.71777 32.6419 9.78355 32.6296C11.0138 32.4013 13.826 31.3965 14.9708 30.8042C13.4981 31.2025 11.7459 31.2782 10.9703 31.2726V31.2721Z" fill="#00A2C9"/>
<path d="M21.678 33.0612L20.783 32.9573L20.4849 33.0305C19.8302 33.1912 19.1618 33.2962 18.4881 33.3432C16.9984 33.4467 16.0111 33.5362 13.8705 33.4415L10.4334 33.1155L16.0048 36.0998L21.678 33.0612Z" fill="#00A2C9"/>
<path d="M12.1497 30.8482C14.2558 30.9818 18.1004 29.4835 18.0924 29.4758C17.9948 29.4518 12.4213 28.2549 11.3953 28.1137C8.05898 27.6555 5.88232 27.786 4.38312 28.1188V29.0673C4.96031 29.1308 5.59956 29.2659 6.28816 29.5122C8.96614 30.4694 10.1587 30.7223 12.1502 30.8487L12.1497 30.8482Z" fill="#00A2C9"/>
<path d="M10.2611 27.5603C11.921 27.7471 15.1868 28.2723 15.2674 28.2892C14.3422 28 13.4154 27.5127 12.4955 27.2004C9.52047 26.1894 6.77246 25.442 4.38254 25.9483V27.6765C5.13108 27.4845 5.89819 27.3893 6.6462 27.3704C7.86848 27.3396 9.04355 27.4226 10.2611 27.5598V27.5603Z" fill="#00A2C9"/>
<path d="M7.60217 30.6117C8.27591 30.6885 8.94434 30.8037 9.61967 30.8656C9.63506 30.8656 9.65097 30.8667 9.66689 30.8667C8.5454 30.5293 7.14646 30.1541 5.9454 29.8147C5.25522 29.6197 4.81702 29.4968 4.38254 29.4338V29.8746L5.63028 30.5426C6.2775 30.5052 6.92737 30.5344 7.6027 30.6117H7.60217Z" fill="#00A2C9"/>
<path d="M7.52153 25.5854C6.51251 25.2792 5.36981 25.1564 4.38254 25.1523V25.6196C5.96079 25.4087 7.51304 25.5854 7.52153 25.5859V25.5854Z" fill="#00A2C9"/>
<path d="M26.9003 23.7727C26.4928 23.6022 25.7427 23.1686 25.8748 21.8858C24.731 22.4571 24.8918 22.3378 23.6509 23.0586C24.8069 25.5264 26.4446 26.086 27.6271 26.0409V23.8612C27.3735 23.8802 27.1204 23.8643 26.9008 23.7727H26.9003Z" fill="#00A2C9"/>
<path d="M6.48657 24.9398C5.78418 24.6424 5.15129 24.3998 4.38312 24.1966V24.7776C4.40115 24.7776 4.41866 24.7771 4.43723 24.7765C4.89611 24.7755 6.02927 24.8958 6.4871 24.9393L6.48657 24.9398Z" fill="#00A2C9"/>
<path d="M17.2875 28.2391C18.2281 28.301 18.9767 28.3061 19.9889 27.934C20.9056 27.5971 22.0711 26.7412 22.7602 25.9145C24.9862 28.1669 27.4791 26.409 27.4791 26.409C27.4791 26.409 24.6647 26.8124 23.3836 23.1682C22.1814 23.6079 20.4647 25.3903 19.6 25.8633C17.6913 26.9081 16.0234 26.8114 14.8223 26.4141C13.5814 26.0041 12.634 25.055 11.7783 23.8874C11.5024 24.1638 10.7061 24.6225 9.27163 24.9839C8.59471 25.1543 7.43609 25.0453 6.74908 24.9803C6.74908 24.9803 9.75227 25.7963 10.4806 26.1065C11.7194 26.6342 16.1024 28.1602 17.2865 28.2385L17.2875 28.2391Z" fill="#00A2C9"/>
<path d="M10.4069 23.0898C9.82125 23.2429 9.23663 23.4318 8.63398 23.3524C7.60109 23.2168 6.91302 21.9048 6.91302 21.9048C6.91302 21.9048 5.75387 22.8759 5.17668 23.0033C4.92469 23.0591 4.65944 23.0991 4.38199 23.1293V23.9677C4.81594 24.0763 5.20374 24.1546 5.46156 24.1899C7.13636 24.4162 8.88066 23.9544 10.4064 23.0903L10.4069 23.0898Z" fill="#00A2C9"/>
</svg>
